<svg xmlns="http://www.w3.org/2000/svg" fill="none" viewBox="0 0 48 48" id="Add--Streamline-Ionic-Filled" height="48" width="48"><desc>Add Streamline Icon: https://streamlinehq.com</desc><path fill="#ffffff" fill-rule="evenodd" d="M26.3519 2.8321c0 -1.2991 -1.0529 -2.352 -2.3519 -2.352 -1.2991 0 -2.352 1.0529 -2.352 2.352V21.648H2.8319C1.533 21.648 0.48 22.7011 0.48 24c0 1.2991 1.053 2.352 2.3519 2.352H21.648v18.8159c0 1.2991 1.0529 2.3521 2.352 2.3521 1.299 0 2.3519 -1.0529 2.3519 -2.3521V26.352H45.168c1.2989 0 2.352 -1.0529 2.352 -2.352 0 -1.299 -1.0531 -2.352 -2.352 -2.352H26.3519V2.8321Z" clip-rule="evenodd" stroke-width="1"></path></svg>