<svg width="16" height="16" viewBox="0 0 16 16" fill="none" xmlns="http://www.w3.org/2000/svg">
<path d="M8 6.66667C7.81111 6.66667 7.65289 6.73067 7.52533 6.85867C7.39778 6.98667 7.33378 7.14489 7.33333 7.33334V9.46667L6.73333 8.86667C6.61111 8.74445 6.45556 8.68334 6.26667 8.68334C6.07778 8.68334 5.92222 8.74445 5.8 8.86667C5.67778 8.98889 5.61667 9.14445 5.61667 9.33334C5.61667 9.52223 5.67778 9.67778 5.8 9.8L7.53333 11.5333C7.66667 11.6667 7.82222 11.7333 8 11.7333C8.17778 11.7333 8.33333 11.6667 8.46667 11.5333L10.2 9.8C10.3222 9.67778 10.3833 9.52223 10.3833 9.33334C10.3833 9.14445 10.3222 8.98889 10.2 8.86667C10.0778 8.74445 9.92222 8.68334 9.73333 8.68334C9.54445 8.68334 9.38889 8.74445 9.26667 8.86667L8.66667 9.46667V7.33334C8.66667 7.14445 8.60267 6.98623 8.47467 6.85867C8.34667 6.73112 8.18845 6.66712 8 6.66667ZM3.33333 5.33334V12.6667H12.6667V5.33334H3.33333ZM3.33333 14C2.96667 14 2.65289 13.8696 2.392 13.6087C2.13111 13.3478 2.00044 13.0338 2 12.6667V4.35C2 4.19445 2.02511 4.04445 2.07533 3.9C2.12556 3.75556 2.20044 3.62223 2.3 3.5L3.13333 2.48334C3.25556 2.32778 3.40822 2.20823 3.59133 2.12467C3.77444 2.04111 3.96622 1.99956 4.16667 2H11.8333C12.0333 2 12.2251 2.04178 12.4087 2.12534C12.5922 2.20889 12.7449 2.32823 12.8667 2.48334L13.7 3.5C13.8 3.62223 13.8751 3.75556 13.9253 3.9C13.9756 4.04445 14.0004 4.19445 14 4.35V12.6667C14 13.0333 13.8696 13.3473 13.6087 13.6087C13.3478 13.87 13.0338 14.0004 12.6667 14H3.33333ZM3.6 4H12.4L11.8333 3.33334H4.16667L3.6 4Z" fill="#EAEAEA"/>
</svg>
