<svg width="146" height="40" viewBox="0 0 146 40" fill="none" xmlns="http://www.w3.org/2000/svg">
<path d="M33.8532 21.0784L34.7149 17.8584C35.7215 14.1 36.2265 12.2217 35.8482 10.595C35.5483 9.31086 34.8744 8.14446 33.9115 7.24337C32.6932 6.10171 30.8132 5.59837 27.0549 4.59171C23.2965 3.58337 21.4165 3.08004 19.7915 3.45837C18.5074 3.75823 17.341 4.4322 16.4399 5.39504C15.4615 6.43837 14.9515 7.96671 14.1932 10.7434L13.7865 12.2517L12.9249 15.4717C11.9165 19.23 11.4132 21.1084 11.7915 22.735C12.0914 24.0192 12.7654 25.1856 13.7282 26.0867C14.9465 27.2284 16.8265 27.7317 20.5849 28.74C23.9715 29.6467 25.8332 30.145 27.3582 29.9567C27.5249 29.9356 27.6882 29.9067 27.8482 29.87C29.132 29.5711 30.2983 28.8983 31.1999 27.9367C32.3415 26.7167 32.8449 24.8367 33.8532 21.0784Z" stroke="#4DA1A9" stroke-width="2.75"/>
<path opacity="0.5" d="M27.3583 29.9567C27.0099 31.0239 26.3976 31.9859 25.5783 32.7533C24.36 33.895 22.4799 34.3983 18.7216 35.405C14.9633 36.4117 13.0833 36.9167 11.4583 36.5367C10.1743 36.2373 9.00792 35.5639 8.10662 34.6017C6.96495 33.3833 6.45995 31.5033 5.45328 27.745L4.59162 24.525C3.58328 20.7667 3.07995 18.8867 3.45828 17.2617C3.75814 15.9775 4.43211 14.8111 5.39495 13.91C6.61328 12.7683 8.49328 12.265 12.2516 11.2567C12.9605 11.0656 13.6077 10.8939 14.1933 10.7417" stroke="#4DA1A9" stroke-width="2.75"/>
<path d="M19.6284 16.6667L27.6784 18.8233" stroke="#4DA1A9" stroke-width="2.75" stroke-linecap="round"/>
<path opacity="0.5" d="M18.3333 21.4967L23.1633 22.79" stroke="#4DA1A9" stroke-width="2.75" stroke-linecap="round"/>
<path d="M59.32 29H56.52L50.18 19.42V29H47.38V15.02H50.18L56.52 24.62V15.02H59.32V29ZM67.007 29.18C65.9404 29.18 64.9804 28.9467 64.127 28.48C63.2737 28 62.6004 27.3267 62.107 26.46C61.627 25.5933 61.387 24.5933 61.387 23.46C61.387 22.3267 61.6337 21.3267 62.127 20.46C62.6337 19.5933 63.3204 18.9267 64.187 18.46C65.0537 17.98 66.0204 17.74 67.087 17.74C68.1537 17.74 69.1204 17.98 69.987 18.46C70.8537 18.9267 71.5337 19.5933 72.027 20.46C72.5337 21.3267 72.787 22.3267 72.787 23.46C72.787 24.5933 72.527 25.5933 72.007 26.46C71.5004 27.3267 70.807 28 69.927 28.48C69.0604 28.9467 68.087 29.18 67.007 29.18ZM67.007 26.74C67.5137 26.74 67.987 26.62 68.427 26.38C68.8804 26.1267 69.2404 25.7533 69.507 25.26C69.7737 24.7667 69.907 24.1667 69.907 23.46C69.907 22.4067 69.627 21.6 69.067 21.04C68.5204 20.4667 67.847 20.18 67.047 20.18C66.247 20.18 65.5737 20.4667 65.027 21.04C64.4937 21.6 64.227 22.4067 64.227 23.46C64.227 24.5133 64.487 25.3267 65.007 25.9C65.5404 26.46 66.207 26.74 67.007 26.74ZM78.1009 20.22V25.58C78.1009 25.9533 78.1876 26.2267 78.3609 26.4C78.5476 26.56 78.8543 26.64 79.2809 26.64H80.5809V29H78.8209C76.4609 29 75.2809 27.8533 75.2809 25.56V20.22H73.9609V17.92H75.2809V15.18H78.1009V17.92H80.5809V20.22H78.1009ZM92.8948 23.22C92.8948 23.62 92.8682 23.98 92.8148 24.3H84.7148C84.7815 25.1 85.0615 25.7267 85.5548 26.18C86.0482 26.6333 86.6548 26.86 87.3748 26.86C88.4148 26.86 89.1548 26.4133 89.5948 25.52H92.6148C92.2948 26.5867 91.6815 27.4667 90.7748 28.16C89.8682 28.84 88.7548 29.18 87.4348 29.18C86.3682 29.18 85.4082 28.9467 84.5548 28.48C83.7148 28 83.0548 27.3267 82.5748 26.46C82.1082 25.5933 81.8748 24.5933 81.8748 23.46C81.8748 22.3133 82.1082 21.3067 82.5748 20.44C83.0415 19.5733 83.6948 18.9067 84.5348 18.44C85.3748 17.9733 86.3415 17.74 87.4348 17.74C88.4882 17.74 89.4282 17.9667 90.2548 18.42C91.0948 18.8733 91.7415 19.52 92.1948 20.36C92.6615 21.1867 92.8948 22.14 92.8948 23.22ZM89.9948 22.42C89.9815 21.7 89.7215 21.1267 89.2148 20.7C88.7082 20.26 88.0882 20.04 87.3548 20.04C86.6615 20.04 86.0748 20.2533 85.5948 20.68C85.1282 21.0933 84.8415 21.6733 84.7348 22.42H89.9948ZM99.1786 29.18C98.2719 29.18 97.4586 29.02 96.7386 28.7C96.0186 28.3667 95.4453 27.92 95.0186 27.36C94.6053 26.8 94.3786 26.18 94.3386 25.5H97.1586C97.2119 25.9267 97.4186 26.28 97.7786 26.56C98.1519 26.84 98.6119 26.98 99.1586 26.98C99.6919 26.98 100.105 26.8733 100.399 26.66C100.705 26.4467 100.859 26.1733 100.859 25.84C100.859 25.48 100.672 25.2133 100.299 25.04C99.9386 24.8533 99.3586 24.6533 98.5586 24.44C97.7319 24.24 97.0519 24.0333 96.5186 23.82C95.9986 23.6067 95.5453 23.28 95.1586 22.84C94.7853 22.4 94.5986 21.8067 94.5986 21.06C94.5986 20.4467 94.7719 19.8867 95.1186 19.38C95.4786 18.8733 95.9853 18.4733 96.6386 18.18C97.3053 17.8867 98.0853 17.74 98.9786 17.74C100.299 17.74 101.352 18.0733 102.139 18.74C102.925 19.3933 103.359 20.28 103.439 21.4H100.759C100.719 20.96 100.532 20.6133 100.199 20.36C99.8786 20.0933 99.4453 19.96 98.8986 19.96C98.3919 19.96 97.9986 20.0533 97.7186 20.24C97.4519 20.4267 97.3186 20.6867 97.3186 21.02C97.3186 21.3933 97.5053 21.68 97.8786 21.88C98.2519 22.0667 98.8319 22.26 99.6186 22.46C100.419 22.66 101.079 22.8667 101.599 23.08C102.119 23.2933 102.565 23.6267 102.939 24.08C103.325 24.52 103.525 25.1067 103.539 25.84C103.539 26.48 103.359 27.0533 102.999 27.56C102.652 28.0667 102.145 28.4667 101.479 28.76C100.825 29.04 100.059 29.18 99.1786 29.18Z" fill="#4DA1A9"/>
<path d="M114.397 26.34H108.837L107.917 29H104.977L109.997 15.02H113.257L118.277 29H115.317L114.397 26.34ZM113.637 24.1L111.617 18.26L109.597 24.1H113.637ZM122.953 19.52C123.313 19.0133 123.807 18.5933 124.433 18.26C125.073 17.9133 125.8 17.74 126.613 17.74C127.56 17.74 128.413 17.9733 129.173 18.44C129.947 18.9067 130.553 19.5733 130.993 20.44C131.447 21.2933 131.673 22.2867 131.673 23.42C131.673 24.5533 131.447 25.56 130.993 26.44C130.553 27.3067 129.947 27.98 129.173 28.46C128.413 28.94 127.56 29.18 126.613 29.18C125.8 29.18 125.08 29.0133 124.453 28.68C123.84 28.3467 123.34 27.9267 122.953 27.42V34.28H120.153V17.92H122.953V19.52ZM128.813 23.42C128.813 22.7533 128.673 22.18 128.393 21.7C128.127 21.2067 127.767 20.8333 127.313 20.58C126.873 20.3267 126.393 20.2 125.873 20.2C125.367 20.2 124.887 20.3333 124.433 20.6C123.993 20.8533 123.633 21.2267 123.353 21.72C123.087 22.2133 122.953 22.7933 122.953 23.46C122.953 24.1267 123.087 24.7067 123.353 25.2C123.633 25.6933 123.993 26.0733 124.433 26.34C124.887 26.5933 125.367 26.72 125.873 26.72C126.393 26.72 126.873 26.5867 127.313 26.32C127.767 26.0533 128.127 25.6733 128.393 25.18C128.673 24.6867 128.813 24.1 128.813 23.42ZM136.508 19.52C136.868 19.0133 137.361 18.5933 137.988 18.26C138.628 17.9133 139.355 17.74 140.168 17.74C141.115 17.74 141.968 17.9733 142.728 18.44C143.501 18.9067 144.108 19.5733 144.548 20.44C145.001 21.2933 145.228 22.2867 145.228 23.42C145.228 24.5533 145.001 25.56 144.548 26.44C144.108 27.3067 143.501 27.98 142.728 28.46C141.968 28.94 141.115 29.18 140.168 29.18C139.355 29.18 138.635 29.0133 138.008 28.68C137.395 28.3467 136.895 27.9267 136.508 27.42V34.28H133.708V17.92H136.508V19.52ZM142.368 23.42C142.368 22.7533 142.228 22.18 141.948 21.7C141.681 21.2067 141.321 20.8333 140.868 20.58C140.428 20.3267 139.948 20.2 139.428 20.2C138.921 20.2 138.441 20.3333 137.988 20.6C137.548 20.8533 137.188 21.2267 136.908 21.72C136.641 22.2133 136.508 22.7933 136.508 23.46C136.508 24.1267 136.641 24.7067 136.908 25.2C137.188 25.6933 137.548 26.0733 137.988 26.34C138.441 26.5933 138.921 26.72 139.428 26.72C139.948 26.72 140.428 26.5867 140.868 26.32C141.321 26.0533 141.681 25.6733 141.948 25.18C142.228 24.6867 142.368 24.1 142.368 23.42Z" fill="#636363"/>
</svg>
