<svg width="40" height="40" viewBox="0 0 40 40" fill="none" xmlns="http://www.w3.org/2000/svg">
<path d="M33.8532 21.0784L34.7149 17.8584C35.7215 14.1 36.2265 12.2217 35.8482 10.595C35.5483 9.31086 34.8744 8.14446 33.9115 7.24337C32.6932 6.10171 30.8132 5.59837 27.0549 4.59171C23.2965 3.58337 21.4165 3.08004 19.7915 3.45837C18.5074 3.75823 17.341 4.4322 16.4399 5.39504C15.4615 6.43837 14.9515 7.96671 14.1932 10.7434L13.7865 12.2517L12.9249 15.4717C11.9165 19.23 11.4132 21.1084 11.7915 22.735C12.0914 24.0192 12.7654 25.1856 13.7282 26.0867C14.9465 27.2284 16.8265 27.7317 20.5849 28.74C23.9715 29.6467 25.8332 30.145 27.3582 29.9567C27.5249 29.9356 27.6882 29.9067 27.8482 29.87C29.132 29.5711 30.2983 28.8983 31.1999 27.9367C32.3415 26.7167 32.8449 24.8367 33.8532 21.0784Z" stroke="#4DA1A9" stroke-width="2.75"/>
<path opacity="0.5" d="M27.3583 29.9567C27.0099 31.0239 26.3976 31.9859 25.5783 32.7533C24.36 33.895 22.4799 34.3983 18.7216 35.405C14.9633 36.4117 13.0833 36.9167 11.4583 36.5367C10.1743 36.2373 9.00792 35.5639 8.10662 34.6017C6.96495 33.3833 6.45995 31.5033 5.45328 27.745L4.59162 24.525C3.58328 20.7667 3.07995 18.8867 3.45828 17.2617C3.75814 15.9775 4.43211 14.8111 5.39495 13.91C6.61328 12.7683 8.49328 12.265 12.2516 11.2567C12.9605 11.0656 13.6077 10.8939 14.1933 10.7417" stroke="#4DA1A9" stroke-width="2.75"/>
<path d="M19.6284 16.6667L27.6784 18.8233" stroke="#4DA1A9" stroke-width="2.75" stroke-linecap="round"/>
<path opacity="0.5" d="M18.3333 21.4967L23.1633 22.79" stroke="#4DA1A9" stroke-width="2.75" stroke-linecap="round"/>
</svg>
