<svg width="20" height="20" viewBox="0 0 20 20" fill="none" xmlns="http://www.w3.org/2000/svg">
<path d="M5.96906 5.71136C5.96906 5.5145 6.04726 5.3257 6.18646 5.18649C6.32567 5.04729 6.51446 4.96909 6.71133 4.96909H14.1341C14.3309 4.96909 14.5197 5.04729 14.6589 5.18649C14.7981 5.3257 14.8763 5.5145 14.8763 5.71136C14.8763 5.90822 14.7981 6.09702 14.6589 6.23622C14.5197 6.37543 14.3309 6.45363 14.1341 6.45363H6.71133C6.51446 6.45363 6.32567 6.37543 6.18646 6.23622C6.04726 6.09702 5.96906 5.90822 5.96906 5.71136ZM5.96906 8.68045C5.96906 8.48359 6.04726 8.29479 6.18646 8.15558C6.32567 8.01638 6.51446 7.93818 6.71133 7.93818H14.1341C14.3309 7.93818 14.5197 8.01638 14.6589 8.15558C14.7981 8.29479 14.8763 8.48359 14.8763 8.68045C14.8763 8.87731 14.7981 9.06611 14.6589 9.20532C14.5197 9.34452 14.3309 9.42272 14.1341 9.42272H6.71133C6.51446 9.42272 6.32567 9.34452 6.18646 9.20532C6.04726 9.06611 5.96906 8.87731 5.96906 8.68045ZM6.71133 10.9073C6.51446 10.9073 6.32567 10.9855 6.18646 11.1247C6.04726 11.2639 5.96906 11.4527 5.96906 11.6495C5.96906 11.8464 6.04726 12.0352 6.18646 12.1744C6.32567 12.3136 6.51446 12.3918 6.71133 12.3918H14.1341C14.3309 12.3918 14.5197 12.3136 14.6589 12.1744C14.7981 12.0352 14.8763 11.8464 14.8763 11.6495C14.8763 11.4527 14.7981 11.2639 14.6589 11.1247C14.5197 10.9855 14.3309 10.9073 14.1341 10.9073H6.71133ZM5.96906 14.6186C5.96906 14.4218 6.04726 14.233 6.18646 14.0938C6.32567 13.9546 6.51446 13.8764 6.71133 13.8764H9.68042C9.87728 13.8764 10.0661 13.9546 10.2053 14.0938C10.3445 14.233 10.4227 14.4218 10.4227 14.6186C10.4227 14.8155 10.3445 15.0043 10.2053 15.1435C10.0661 15.2827 9.87728 15.3609 9.68042 15.3609H6.71133C6.51446 15.3609 6.32567 15.2827 6.18646 15.1435C6.04726 15.0043 5.96906 14.8155 5.96906 14.6186Z" fill="black"/>
<path fill-rule="evenodd" clip-rule="evenodd" d="M3 4.22682C3 3.63623 3.23461 3.06983 3.65222 2.65222C4.06983 2.23461 4.63623 2 5.22682 2H15.6186C16.2092 2 16.7756 2.23461 17.1932 2.65222C17.6108 3.06983 17.8455 3.63623 17.8455 4.22682V16.1032C17.8455 16.6938 17.6108 17.2602 17.1932 17.6778C16.7756 18.0954 16.2092 18.33 15.6186 18.33H5.22682C4.63623 18.33 4.06983 18.0954 3.65222 17.6778C3.23461 17.2602 3 16.6938 3 16.1032V4.22682ZM5.22682 3.48455H15.6186C15.8155 3.48455 16.0043 3.56275 16.1435 3.70195C16.2827 3.84116 16.3609 4.02996 16.3609 4.22682V16.1032C16.3609 16.3 16.2827 16.4888 16.1435 16.628C16.0043 16.7673 15.8155 16.8455 15.6186 16.8455H5.22682C5.02996 16.8455 4.84116 16.7673 4.70195 16.628C4.56275 16.4888 4.48455 16.3 4.48455 16.1032V4.22682C4.48455 4.02996 4.56275 3.84116 4.70195 3.70195C4.84116 3.56275 5.02996 3.48455 5.22682 3.48455Z" fill="black"/>
</svg>
