<svg width="16" height="16" viewBox="0 0 16 16" fill="none" xmlns="http://www.w3.org/2000/svg">
<path d="M7.99984 11.3333C8.35346 11.3333 8.6926 11.4738 8.94265 11.7239C9.1927 11.9739 9.33317 12.313 9.33317 12.6667C9.33317 13.0203 9.1927 13.3594 8.94265 13.6095C8.6926 13.8595 8.35346 14 7.99984 14C7.64622 14 7.30708 13.8595 7.05703 13.6095C6.80698 13.3594 6.6665 13.0203 6.6665 12.6667C6.6665 12.313 6.80698 11.9739 7.05703 11.7239C7.30708 11.4738 7.64622 11.3333 7.99984 11.3333ZM7.99984 6.66667C8.35346 6.66667 8.6926 6.80714 8.94265 7.05719C9.1927 7.30724 9.33317 7.64638 9.33317 8C9.33317 8.35362 9.1927 8.69276 8.94265 8.94281C8.6926 9.19286 8.35346 9.33333 7.99984 9.33333C7.64622 9.33333 7.30708 9.19286 7.05703 8.94281C6.80698 8.69276 6.6665 8.35362 6.6665 8C6.6665 7.64638 6.80698 7.30724 7.05703 7.05719C7.30708 6.80714 7.64622 6.66667 7.99984 6.66667ZM7.99984 2C8.35346 2 8.6926 2.14048 8.94265 2.39052C9.1927 2.64057 9.33317 2.97971 9.33317 3.33333C9.33317 3.68696 9.1927 4.02609 8.94265 4.27614C8.6926 4.52619 8.35346 4.66667 7.99984 4.66667C7.64622 4.66667 7.30708 4.52619 7.05703 4.27614C6.80698 4.02609 6.6665 3.68696 6.6665 3.33333C6.6665 2.97971 6.80698 2.64057 7.05703 2.39052C7.30708 2.14048 7.64622 2 7.99984 2Z" fill="#EAEAEA"/>
</svg>
